<svg xmlns="http://www.w3.org/2000/svg" xmlns:xlink="http://www.w3.org/1999/xlink" width="100" zoomAndPan="magnify" viewBox="0 0 75 74.999997" height="100" preserveAspectRatio="xMidYMid meet" version="1.0"><defs><clipPath id="afd9641f72"><path d="M 11.527344 11.527344 L 63.277344 11.527344 L 63.277344 63.277344 L 11.527344 63.277344 Z M 11.527344 11.527344 " clip-rule="nonzero"/></clipPath><clipPath id="65ec0f0e46"><path d="M 11.527344 11.527344 L 63.277344 11.527344 L 63.277344 25 L 11.527344 25 Z M 11.527344 11.527344 " clip-rule="nonzero"/></clipPath><clipPath id="2dd365db4e"><path d="M 11.527344 11.527344 L 38 11.527344 L 38 63.277344 L 11.527344 63.277344 Z M 11.527344 11.527344 " clip-rule="nonzero"/></clipPath><clipPath id="2f96043e06"><path d="M 11.527344 11.527344 L 38 11.527344 L 38 25 L 11.527344 25 Z M 11.527344 11.527344 " clip-rule="nonzero"/></clipPath></defs><g clip-path="url(#afd9641f72)"><path fill="#5e94ff" d="M 18.121094 11.40625 C 14.414062 11.40625 11.40625 14.414062 11.40625 18.121094 L 11.40625 57.191406 C 11.40625 60.902344 14.414062 63.90625 18.121094 63.90625 L 57.191406 63.90625 C 60.902344 63.90625 63.90625 60.902344 63.90625 57.191406 L 63.90625 18.121094 C 63.90625 14.414062 60.902344 11.40625 57.191406 11.40625 Z M 18.121094 11.40625 " fill-opacity="1" fill-rule="nonzero"/></g><g clip-path="url(#65ec0f0e46)"><path fill="#4dc4ff" d="M 18.121094 11.40625 C 14.414062 11.40625 11.40625 14.414062 11.40625 18.121094 L 11.40625 23.003906 C 11.40625 24.015625 12.226562 24.835938 13.238281 24.835938 L 62.074219 24.835938 C 63.085938 24.835938 63.90625 24.015625 63.90625 23.003906 L 63.90625 18.121094 C 63.90625 14.414062 60.902344 11.40625 57.191406 11.40625 Z M 18.121094 11.40625 " fill-opacity="1" fill-rule="nonzero"/></g><g clip-path="url(#2dd365db4e)"><path fill="#5485e5" d="M 37.65625 11.40625 L 37.65625 63.90625 L 18.121094 63.90625 C 14.414062 63.90625 11.40625 60.902344 11.40625 57.191406 L 11.40625 18.121094 C 11.40625 14.414062 14.414062 11.40625 18.121094 11.40625 Z M 37.65625 11.40625 " fill-opacity="1" fill-rule="evenodd"/></g><g clip-path="url(#2f96043e06)"><path fill="#45b0e5" d="M 37.65625 11.40625 L 37.65625 24.835938 L 13.238281 24.835938 C 12.226562 24.835938 11.40625 24.015625 11.40625 23.003906 L 11.40625 18.121094 C 11.40625 14.414062 14.414062 11.40625 18.121094 11.40625 Z M 37.65625 11.40625 " fill-opacity="1" fill-rule="evenodd"/></g><path fill="#eceff1" d="M 39.488281 30.332031 C 39.488281 29.320312 40.308594 28.5 41.320312 28.5 L 54.75 28.5 C 55.761719 28.5 56.582031 29.320312 56.582031 30.332031 C 56.582031 31.34375 55.761719 32.164062 54.75 32.164062 L 43.152344 32.164062 L 43.152344 40.710938 L 54.75 40.710938 C 55.761719 40.710938 56.582031 41.527344 56.582031 42.539062 L 56.582031 54.75 C 56.582031 55.761719 55.761719 56.582031 54.75 56.582031 L 41.320312 56.582031 C 40.308594 56.582031 39.488281 55.761719 39.488281 54.75 C 39.488281 53.738281 40.308594 52.917969 41.320312 52.917969 L 52.917969 52.917969 L 52.917969 44.371094 L 41.320312 44.371094 C 40.308594 44.371094 39.488281 43.550781 39.488281 42.539062 Z M 39.488281 30.332031 " fill-opacity="1" fill-rule="evenodd"/><path fill="#cfd8dc" d="M 16.289062 30.332031 C 16.289062 29.320312 17.109375 28.5 18.121094 28.5 L 35.214844 28.5 C 36.226562 28.5 37.046875 29.320312 37.046875 30.332031 C 37.046875 31.34375 36.226562 32.164062 35.214844 32.164062 L 28.5 32.164062 L 28.5 54.75 C 28.5 55.761719 27.679688 56.582031 26.667969 56.582031 C 25.65625 56.582031 24.835938 55.761719 24.835938 54.75 L 24.835938 32.164062 L 18.121094 32.164062 C 17.109375 32.164062 16.289062 31.34375 16.289062 30.332031 Z M 16.289062 30.332031 " fill-opacity="1" fill-rule="evenodd"/></svg>