<svg xmlns="http://www.w3.org/2000/svg" xmlns:xlink="http://www.w3.org/1999/xlink" width="100" zoomAndPan="magnify" viewBox="0 0 75 74.999997" height="100" preserveAspectRatio="xMidYMid meet" version="1.0"><defs><clipPath id="d42784a307"><path d="M 14.851562 11.613281 L 59.851562 11.613281 L 59.851562 63.363281 L 14.851562 63.363281 Z M 14.851562 11.613281 " clip-rule="nonzero"/></clipPath></defs><g clip-path="url(#d42784a307)"><path fill="#8cc03e" d="M 31.832031 56.980469 C 30.519531 57.746094 30.269531 57.835938 29.03125 58.277344 C 28.734375 58.382812 28.28125 58.5625 29.203125 59.097656 L 35.390625 62.828125 C 35.984375 63.179688 36.664062 63.359375 37.335938 63.359375 L 37.34375 63.363281 C 38.023438 63.363281 38.695312 63.179688 39.285156 62.832031 L 57.8125 51.929688 C 59.015625 51.214844 59.757812 49.894531 59.757812 48.484375 L 59.757812 26.691406 C 59.757812 25.273438 59.019531 23.953125 57.8125 23.246094 L 39.285156 12.335938 C 38.125 11.660156 36.566406 11.660156 35.394531 12.335938 L 16.886719 23.234375 C 15.6875 23.941406 14.945312 25.273438 14.945312 26.683594 L 14.945312 48.472656 C 14.945312 49.894531 15.683594 51.214844 16.886719 51.917969 L 21.742188 54.773438 C 24.089844 55.960938 24.929688 55.960938 26.003906 55.960938 C 29.484375 55.960938 31.492188 53.8125 31.492188 50.070312 L 31.492188 28.546875 C 31.492188 28.242188 31.242188 28.003906 30.949219 28.003906 L 28.601562 28.003906 C 28.300781 28.003906 28.058594 28.238281 28.058594 28.546875 L 28.058594 50.058594 C 28.058594 51.726562 26.375 53.375 23.613281 51.972656 L 18.539062 48.988281 C 18.363281 48.894531 18.253906 48.691406 18.253906 48.484375 L 18.253906 26.691406 C 18.253906 26.480469 18.363281 26.273438 18.542969 26.171875 L 37.046875 15.269531 C 37.214844 15.167969 37.449219 15.167969 37.621094 15.269531 L 56.136719 26.160156 C 56.316406 26.273438 56.425781 26.46875 56.425781 26.683594 L 56.425781 48.484375 C 56.425781 48.6875 56.316406 48.890625 56.144531 48.996094 L 37.621094 59.898438 C 37.460938 60 37.21875 60 37.046875 59.898438 L 32.292969 57.023438 C 32.152344 56.929688 31.972656 56.898438 31.832031 56.980469 Z M 31.832031 56.980469 " fill-opacity="1" fill-rule="nonzero"/></g><path fill="#8cc03e" d="M 43.054688 45.046875 C 38.152344 45.046875 37.078125 43.789062 36.71875 41.304688 C 36.679688 41.039062 36.457031 40.84375 36.1875 40.84375 L 33.792969 40.84375 C 33.492188 40.84375 33.261719 41.089844 33.261719 41.386719 C 33.261719 44.566406 34.953125 48.359375 43.066406 48.359375 C 48.921875 48.347656 52.296875 45.988281 52.296875 41.875 L 52.289062 41.878906 C 52.289062 37.800781 49.582031 36.714844 43.894531 35.949219 C 38.136719 35.171875 37.558594 34.769531 37.558594 33.402344 C 37.558594 32.269531 38.050781 30.753906 42.3125 30.753906 C 46.113281 30.753906 47.519531 31.589844 48.097656 34.207031 C 48.148438 34.457031 48.371094 34.636719 48.621094 34.636719 L 51.027344 34.636719 C 51.179688 34.636719 51.320312 34.578125 51.417969 34.464844 C 51.519531 34.351562 51.570312 34.199219 51.558594 34.046875 C 51.1875 29.535156 48.25 27.441406 42.3125 27.441406 C 37.027344 27.441406 33.875 29.710938 33.875 33.523438 C 33.875 37.65625 37.015625 38.800781 42.082031 39.3125 C 48.148438 39.917969 48.621094 40.824219 48.621094 42.042969 C 48.625 44.148438 46.960938 45.046875 43.054688 45.046875 Z M 43.054688 45.046875 " fill-opacity="1" fill-rule="nonzero"/></svg>