<svg xmlns="http://www.w3.org/2000/svg" xmlns:xlink="http://www.w3.org/1999/xlink" width="100" zoomAndPan="magnify" viewBox="0 0 75 74.999997" height="100" preserveAspectRatio="xMidYMid meet" version="1.0"><defs><clipPath id="2e0ac6ee62"><path d="M 11.652344 11.652344 L 63.402344 11.652344 L 63.402344 63.402344 L 11.652344 63.402344 Z M 11.652344 11.652344 " clip-rule="nonzero"/></clipPath><clipPath id="faf43cf185"><path d="M 11.652344 11.652344 L 38 11.652344 L 38 63.402344 L 11.652344 63.402344 Z M 11.652344 11.652344 " clip-rule="nonzero"/></clipPath></defs><g clip-path="url(#2e0ac6ee62)"><path fill="#ffc44d" d="M 13.578125 11.53125 C 13.0625 11.53125 12.566406 11.753906 12.226562 12.144531 C 11.882812 12.53125 11.722656 13.046875 11.789062 13.5625 L 16.601562 52.074219 C 16.675781 52.671875 17.046875 53.195312 17.585938 53.464844 L 36.839844 63.09375 C 37.347656 63.347656 37.949219 63.347656 38.457031 63.09375 L 57.710938 53.464844 C 58.25 53.195312 58.621094 52.671875 58.695312 52.074219 L 63.507812 13.5625 C 63.574219 13.046875 63.414062 12.53125 63.070312 12.144531 C 62.730469 11.753906 62.234375 11.53125 61.71875 11.53125 Z M 13.578125 11.53125 " fill-opacity="1" fill-rule="nonzero"/></g><g clip-path="url(#faf43cf185)"><path fill="#e5b045" d="M 37.648438 11.53125 L 37.648438 63.28125 C 37.371094 63.28125 37.09375 63.21875 36.839844 63.09375 L 17.585938 53.464844 C 17.046875 53.195312 16.675781 52.671875 16.601562 52.074219 L 11.789062 13.5625 C 11.722656 13.046875 11.882812 12.53125 12.226562 12.144531 C 12.566406 11.753906 13.0625 11.53125 13.578125 11.53125 Z M 37.648438 11.53125 " fill-opacity="1" fill-rule="evenodd"/></g><path fill="#cfd8dc" d="M 34.039062 18.753906 C 35.035156 18.753906 35.84375 19.5625 35.84375 20.558594 L 35.84375 51.847656 C 35.84375 52.492188 35.5 53.085938 34.945312 53.410156 C 34.386719 53.734375 33.699219 53.734375 33.140625 53.417969 L 24.71875 48.601562 C 23.851562 48.109375 23.550781 47.003906 24.046875 46.140625 C 24.539062 45.273438 25.644531 44.972656 26.507812 45.46875 L 32.234375 48.738281 L 32.234375 20.558594 C 32.234375 19.5625 33.042969 18.753906 34.039062 18.753906 Z M 34.039062 18.753906 " fill-opacity="1" fill-rule="evenodd"/><path fill="#eceff1" d="M 39.453125 20.558594 C 39.453125 19.5625 40.261719 18.753906 41.257812 18.753906 L 53.292969 18.753906 C 54.292969 18.753906 55.097656 19.5625 55.097656 20.558594 C 55.097656 21.554688 54.292969 22.363281 53.292969 22.363281 L 43.0625 22.363281 L 43.0625 33.953125 L 51.699219 32.035156 C 52.261719 31.910156 52.851562 32.0625 53.28125 32.441406 C 53.714844 32.820312 53.941406 33.386719 53.886719 33.960938 L 52.683594 47.199219 C 52.628906 47.820312 52.253906 48.371094 51.695312 48.648438 L 42.066406 53.464844 C 41.175781 53.910156 40.089844 53.546875 39.644531 52.65625 C 39.199219 51.765625 39.558594 50.679688 40.453125 50.234375 L 49.179688 45.871094 L 50.070312 36.09375 L 41.652344 37.964844 C 41.117188 38.085938 40.554688 37.953125 40.128906 37.613281 C 39.703125 37.269531 39.453125 36.75 39.453125 36.203125 Z M 39.453125 20.558594 " fill-opacity="1" fill-rule="evenodd"/></svg>