<svg xmlns="http://www.w3.org/2000/svg" xmlns:xlink="http://www.w3.org/1999/xlink" width="90" zoomAndPan="magnify" viewBox="0 0 75 74.999997" height="90" preserveAspectRatio="xMidYMid meet" version="1.0"><defs><clipPath id="c0b1081f97"><path d="M 33 11.535156 L 61 11.535156 L 61 30 L 33 30 Z M 33 11.535156 " clip-rule="nonzero"/></clipPath><clipPath id="9b69200c31"><path d="M 14 38 L 61 38 L 61 63.285156 L 14 63.285156 Z M 14 38 " clip-rule="nonzero"/></clipPath></defs><path fill="#99415b" d="M 60.703125 36.964844 L 60.699219 36.96875 C 60.699219 39.324219 58.75 41.242188 56.355469 41.242188 C 53.957031 41.234375 52.015625 39.320312 52.015625 36.960938 C 52.015625 35.605469 52.65625 34.402344 53.652344 33.617188 L 53.664062 33.609375 L 53.679688 33.59375 C 53.816406 33.492188 53.972656 33.386719 54.128906 33.289062 C 54.128906 33.289062 54.148438 33.289062 54.148438 33.269531 C 54.21875 33.238281 54.285156 33.183594 54.355469 33.148438 C 54.371094 33.148438 54.390625 33.132812 54.40625 33.132812 C 54.476562 33.101562 54.5625 33.066406 54.648438 33.03125 C 54.730469 32.996094 54.824219 32.964844 54.890625 32.929688 C 54.910156 32.929688 54.921875 32.914062 54.941406 32.914062 C 55.011719 32.898438 55.078125 32.863281 55.148438 32.847656 C 55.167969 32.847656 55.199219 32.828125 55.21875 32.828125 C 55.304688 32.8125 55.375 32.792969 55.460938 32.78125 L 55.476562 32.78125 L 55.738281 32.726562 C 55.753906 32.726562 55.785156 32.726562 55.804688 32.710938 C 55.875 32.710938 55.941406 32.691406 56.011719 32.691406 L 56.097656 32.691406 C 56.183594 32.691406 56.269531 32.675781 56.371094 32.675781 L 56.597656 32.675781 C 56.664062 32.675781 56.71875 32.675781 56.789062 32.691406 L 56.824219 32.691406 C 56.960938 32.710938 57.097656 32.726562 57.234375 32.761719 C 59.226562 33.191406 60.695312 34.910156 60.703125 36.964844 Z M 60.703125 36.964844 " fill-opacity="1" fill-rule="nonzero"/><g clip-path="url(#c0b1081f97)"><path fill="#99415b" d="M 33.753906 11.507812 L 60.890625 11.507812 L 54.664062 29.574219 C 54.402344 29.621094 54.144531 29.707031 53.886719 29.792969 L 47.332031 16.648438 L 40.757812 29.707031 C 40.5 29.625 40.222656 29.574219 39.945312 29.519531 Z M 33.753906 11.507812 " fill-opacity="1" fill-rule="nonzero"/></g><path fill="#99415b" d="M 34.167969 36.953125 C 34.167969 36.949219 34.167969 36.945312 34.167969 36.941406 C 34.167969 34.957031 35.546875 33.289062 37.414062 32.820312 L 37.441406 32.8125 C 37.527344 32.792969 37.597656 32.777344 37.683594 32.761719 L 37.734375 32.761719 C 37.804688 32.742188 37.871094 32.742188 37.941406 32.726562 L 38.011719 32.726562 C 38.082031 32.726562 38.132812 32.710938 38.203125 32.710938 L 38.875 32.710938 C 38.941406 32.710938 38.996094 32.726562 39.046875 32.726562 C 39.082031 32.726562 39.097656 32.726562 39.136719 32.742188 C 39.203125 32.761719 39.253906 32.761719 39.324219 32.777344 C 39.339844 32.777344 39.359375 32.777344 39.394531 32.792969 L 39.636719 32.84375 L 39.652344 32.84375 C 39.722656 32.863281 39.789062 32.878906 39.859375 32.914062 C 39.875 32.914062 39.894531 32.929688 39.929688 32.929688 C 39.980469 32.949219 40.046875 32.964844 40.101562 32.996094 C 40.121094 32.996094 40.136719 33.015625 40.152344 33.015625 C 40.222656 33.046875 40.289062 33.066406 40.363281 33.101562 L 40.378906 33.101562 C 40.460938 33.132812 40.535156 33.171875 40.605469 33.222656 L 40.601562 33.21875 L 40.621094 33.21875 C 40.6875 33.253906 40.757812 33.300781 40.828125 33.335938 C 40.847656 33.335938 40.847656 33.355469 40.859375 33.355469 C 40.929688 33.386719 40.984375 33.4375 41.054688 33.472656 L 41.070312 33.492188 C 41.277344 33.640625 41.46875 33.8125 41.65625 33.980469 L 41.675781 34 C 42.410156 34.761719 42.867188 35.792969 42.867188 36.933594 C 42.867188 36.941406 42.867188 36.945312 42.867188 36.953125 C 42.785156 39.25 40.871094 41.085938 38.519531 41.085938 C 36.167969 41.085938 34.253906 39.25 34.171875 36.960938 L 34.171875 36.953125 Z M 34.167969 36.953125 " fill-opacity="1" fill-rule="nonzero"/><path fill="#99415b" d="M 24.8125 36.964844 C 24.8125 37.246094 24.785156 37.523438 24.730469 37.800781 C 24.675781 38.074219 24.59375 38.34375 24.484375 38.601562 C 24.375 38.863281 24.238281 39.109375 24.082031 39.339844 C 23.921875 39.574219 23.742188 39.789062 23.539062 39.988281 C 23.339844 40.1875 23.121094 40.363281 22.882812 40.519531 C 22.644531 40.675781 22.394531 40.808594 22.128906 40.914062 C 21.867188 41.023438 21.59375 41.105469 21.316406 41.160156 C 21.035156 41.214844 20.753906 41.242188 20.46875 41.242188 C 20.183594 41.242188 19.898438 41.214844 19.617188 41.160156 C 19.339844 41.105469 19.066406 41.023438 18.804688 40.914062 C 18.539062 40.808594 18.289062 40.675781 18.050781 40.519531 C 17.816406 40.363281 17.59375 40.1875 17.394531 39.988281 C 17.191406 39.789062 17.011719 39.574219 16.851562 39.339844 C 16.695312 39.109375 16.558594 38.863281 16.453125 38.601562 C 16.34375 38.34375 16.257812 38.074219 16.203125 37.800781 C 16.148438 37.523438 16.121094 37.246094 16.121094 36.964844 C 16.121094 36.6875 16.148438 36.40625 16.203125 36.132812 C 16.257812 35.859375 16.34375 35.589844 16.453125 35.332031 C 16.558594 35.070312 16.695312 34.824219 16.851562 34.59375 C 17.011719 34.359375 17.191406 34.144531 17.394531 33.945312 C 17.59375 33.746094 17.816406 33.570312 18.050781 33.414062 C 18.289062 33.257812 18.539062 33.125 18.804688 33.019531 C 19.066406 32.910156 19.339844 32.828125 19.617188 32.773438 C 19.898438 32.71875 20.183594 32.691406 20.46875 32.691406 C 20.753906 32.691406 21.035156 32.71875 21.316406 32.773438 C 21.59375 32.828125 21.867188 32.910156 22.128906 33.019531 C 22.394531 33.125 22.644531 33.257812 22.882812 33.414062 C 23.121094 33.570312 23.339844 33.746094 23.539062 33.945312 C 23.742188 34.144531 23.921875 34.359375 24.082031 34.59375 C 24.238281 34.824219 24.375 35.070312 24.484375 35.332031 C 24.59375 35.589844 24.675781 35.859375 24.730469 36.132812 C 24.785156 36.40625 24.8125 36.6875 24.8125 36.964844 Z M 24.8125 36.964844 " fill-opacity="1" fill-rule="nonzero"/><g clip-path="url(#9b69200c31)"><path fill="#99415b" d="M 15.203125 51.570312 C 15.617188 49.09375 16.773438 46.773438 17.878906 44.546875 C 17.949219 44.414062 18 44.292969 18.070312 44.15625 C 18.449219 44.292969 18.847656 44.398438 19.261719 44.464844 C 18.605469 48.0625 20.46875 51.773438 24.09375 53.605469 L 24.746094 53.945312 L 25.453125 53.691406 C 28.472656 52.640625 31.265625 50.925781 33.734375 48.636719 C 35.078125 47.40625 36.257812 46.03125 37.269531 44.535156 L 37.324219 44.449219 C 37.71875 44.515625 38.117188 44.53125 38.515625 44.53125 C 42.085938 44.523438 45.085938 42.140625 45.96875 38.90625 L 45.980469 38.851562 L 48.878906 38.851562 C 49.769531 42.144531 52.777344 44.53125 56.347656 44.53125 L 56.351562 44.53125 C 57.78125 44.53125 59.105469 44.140625 60.25 43.480469 C 60.695312 44.75 60.835938 46.078125 60.59375 47.398438 C 60.179688 49.644531 58.792969 51.507812 56.890625 52.585938 L 56.851562 52.605469 C 54.96875 53.675781 52.65625 54.015625 50.226562 54.355469 C 48.605469 54.558594 47.21875 54.808594 45.863281 55.121094 L 46.152344 55.0625 C 42.566406 55.929688 39.117188 57.628906 35.769531 59.253906 C 31.492188 61.339844 27.453125 63.308594 23.710938 63.308594 C 23.695312 63.308594 23.671875 63.308594 23.652344 63.308594 C 21.675781 63.308594 19.839844 62.679688 18.351562 61.621094 C 14.566406 59.042969 14.753906 54.214844 15.203125 51.570312 Z M 15.203125 51.570312 " fill-opacity="1" fill-rule="nonzero"/></g></svg>