<svg xmlns="http://www.w3.org/2000/svg" xmlns:xlink="http://www.w3.org/1999/xlink" width="100" zoomAndPan="magnify" viewBox="0 0 75 74.999997" height="100" preserveAspectRatio="xMidYMid meet" version="1.0"><defs><clipPath id="57f486c07e"><path d="M 11.550781 11.550781 L 63.300781 11.550781 L 63.300781 63.300781 L 11.550781 63.300781 Z M 11.550781 11.550781 " clip-rule="nonzero"/></clipPath></defs><g clip-path="url(#57f486c07e)"><path fill="#f03c2e" d="M 62.324219 35.121094 L 39.730469 12.527344 C 39.417969 12.214844 39.058594 11.972656 38.648438 11.804688 C 38.242188 11.636719 37.816406 11.550781 37.375 11.550781 C 36.929688 11.550781 36.507812 11.636719 36.097656 11.804688 C 35.691406 11.972656 35.328125 12.214844 35.015625 12.527344 L 30.328125 17.214844 L 36.277344 23.167969 C 37.664062 22.683594 39.246094 23.015625 40.351562 24.117188 C 40.886719 24.652344 41.238281 25.292969 41.40625 26.03125 C 41.578125 26.769531 41.539062 27.496094 41.289062 28.214844 L 47.027344 33.949219 C 48.414062 33.472656 50.015625 33.78125 51.121094 34.890625 C 51.308594 35.074219 51.472656 35.273438 51.617188 35.492188 C 51.761719 35.707031 51.882812 35.9375 51.984375 36.179688 C 52.082031 36.417969 52.15625 36.667969 52.207031 36.921875 C 52.261719 37.175781 52.285156 37.433594 52.285156 37.695312 C 52.285156 37.957031 52.261719 38.214844 52.210938 38.46875 C 52.160156 38.726562 52.082031 38.972656 51.984375 39.214844 C 51.882812 39.453125 51.761719 39.683594 51.617188 39.898438 C 51.472656 40.117188 51.308594 40.316406 51.125 40.5 C 50.9375 40.6875 50.738281 40.851562 50.523438 40.996094 C 50.304688 41.140625 50.078125 41.261719 49.835938 41.359375 C 49.59375 41.460938 49.347656 41.535156 49.089844 41.585938 C 48.835938 41.636719 48.578125 41.664062 48.316406 41.664062 C 48.058594 41.664062 47.800781 41.636719 47.542969 41.585938 C 47.289062 41.535156 47.039062 41.460938 46.800781 41.359375 C 46.558594 41.261719 46.328125 41.136719 46.113281 40.992188 C 45.898438 40.847656 45.695312 40.683594 45.511719 40.5 C 44.347656 39.335938 44.058594 37.621094 44.648438 36.1875 L 39.300781 30.835938 L 39.300781 44.914062 C 39.691406 45.109375 40.039062 45.359375 40.351562 45.664062 C 40.535156 45.847656 40.699219 46.050781 40.84375 46.265625 C 40.988281 46.480469 41.109375 46.710938 41.210938 46.949219 C 41.308594 47.191406 41.386719 47.441406 41.4375 47.695312 C 41.488281 47.949219 41.511719 48.207031 41.511719 48.46875 C 41.511719 48.730469 41.488281 48.988281 41.4375 49.242188 C 41.386719 49.496094 41.308594 49.746094 41.210938 49.988281 C 41.109375 50.226562 40.988281 50.457031 40.84375 50.671875 C 40.699219 50.886719 40.535156 51.089844 40.351562 51.273438 C 40.167969 51.457031 39.964844 51.621094 39.75 51.765625 C 39.53125 51.910156 39.304688 52.03125 39.0625 52.132812 C 38.824219 52.230469 38.574219 52.308594 38.320312 52.359375 C 38.066406 52.410156 37.808594 52.433594 37.546875 52.433594 C 37.285156 52.433594 37.027344 52.410156 36.773438 52.359375 C 36.515625 52.308594 36.269531 52.230469 36.027344 52.132812 C 35.789062 52.03125 35.558594 51.910156 35.34375 51.765625 C 35.125 51.621094 34.925781 51.457031 34.742188 51.273438 C 34.558594 51.089844 34.394531 50.890625 34.25 50.671875 C 34.101562 50.457031 33.980469 50.226562 33.882812 49.988281 C 33.78125 49.746094 33.707031 49.5 33.65625 49.242188 C 33.605469 48.988281 33.578125 48.730469 33.578125 48.46875 C 33.578125 48.207031 33.605469 47.949219 33.65625 47.695312 C 33.707031 47.441406 33.78125 47.191406 33.882812 46.949219 C 33.980469 46.710938 34.101562 46.480469 34.25 46.265625 C 34.394531 46.046875 34.558594 45.847656 34.742188 45.664062 C 35.125 45.28125 35.550781 44.992188 36.039062 44.800781 L 36.039062 30.589844 C 35.570312 30.398438 35.125 30.109375 34.742188 29.726562 C 34.464844 29.449219 34.230469 29.136719 34.046875 28.789062 C 33.859375 28.441406 33.730469 28.074219 33.65625 27.6875 C 33.578125 27.300781 33.558594 26.914062 33.601562 26.519531 C 33.640625 26.128906 33.734375 25.753906 33.886719 25.390625 L 28.019531 19.523438 L 12.523438 35 C 12.210938 35.3125 11.972656 35.671875 11.800781 36.082031 C 11.632812 36.488281 11.546875 36.914062 11.546875 37.355469 C 11.546875 37.796875 11.632812 38.222656 11.800781 38.632812 C 11.972656 39.039062 12.210938 39.402344 12.523438 39.714844 L 35.121094 62.304688 C 35.433594 62.617188 35.792969 62.859375 36.203125 63.027344 C 36.609375 63.195312 37.035156 63.28125 37.476562 63.28125 C 37.917969 63.28125 38.34375 63.195312 38.753906 63.027344 C 39.160156 62.859375 39.519531 62.617188 39.832031 62.304688 L 62.324219 39.851562 C 62.636719 39.539062 62.878906 39.179688 63.046875 38.769531 C 63.214844 38.359375 63.300781 37.9375 63.300781 37.492188 C 63.300781 37.050781 63.214844 36.625 63.046875 36.21875 C 62.878906 35.808594 62.636719 35.449219 62.324219 35.136719 " fill-opacity="1" fill-rule="nonzero"/></g></svg>