<svg xmlns="http://www.w3.org/2000/svg" xmlns:xlink="http://www.w3.org/1999/xlink" width="100" zoomAndPan="magnify" viewBox="0 0 75 74.999997" height="100" preserveAspectRatio="xMidYMid meet" version="1.0"><defs><clipPath id="64398b7b61"><path d="M 14.75 11.539062 L 60.5 11.539062 L 60.5 63.289062 L 14.75 63.289062 Z M 14.75 11.539062 " clip-rule="nonzero"/></clipPath></defs><g clip-path="url(#64398b7b61)"><path fill="#e44d26" d="M 18.902344 58 L 14.734375 11.6875 L 60.511719 11.6875 L 56.34375 57.996094 L 37.59375 63.144531 Z M 18.902344 58 " fill-opacity="1" fill-rule="nonzero"/></g><path fill="#f16529" d="M 52.773438 55.046875 L 56.335938 15.472656 L 37.625 15.472656 L 37.625 59.210938 Z M 52.773438 55.046875 " fill-opacity="1" fill-rule="nonzero"/><path fill="#ebebeb" d="M 37.605469 21.152344 L 23.253906 21.152344 L 24.800781 38.332031 L 37.625 38.332031 L 37.625 32.652344 L 30.042969 32.652344 L 29.515625 26.835938 L 37.625 26.835938 L 37.625 21.152344 Z M 37.625 47.382812 L 37.601562 47.390625 L 31.21875 45.683594 L 30.8125 41.152344 L 25.054688 41.152344 L 25.859375 50.070312 L 37.597656 53.289062 L 37.625 53.28125 Z M 37.625 47.382812 " fill-opacity="1" fill-rule="nonzero"/><path fill="#ffffff" d="M 37.605469 38.332031 L 44.660156 38.332031 L 44.011719 45.695312 L 37.621094 47.40625 L 37.621094 53.316406 L 49.371094 50.089844 L 50.945312 32.648438 L 37.625 32.648438 Z M 51.824219 22.679688 L 51.960938 21.152344 L 37.601562 21.152344 L 37.601562 26.832031 L 51.441406 26.832031 L 51.558594 25.554688 Z M 51.824219 22.679688 " fill-opacity="1" fill-rule="nonzero"/></svg>