<svg xmlns="http://www.w3.org/2000/svg" xmlns:xlink="http://www.w3.org/1999/xlink" width="100" zoomAndPan="magnify" viewBox="0 0 75 74.999997" height="100" preserveAspectRatio="xMidYMid meet" version="1.0"><defs><clipPath id="473c40bb74"><path d="M 11.6875 11.6875 L 63.4375 11.6875 L 63.4375 63.4375 L 11.6875 63.4375 Z M 11.6875 11.6875 " clip-rule="nonzero"/></clipPath></defs><g clip-path="url(#473c40bb74)"><path fill="#c76495" d="M 37.5625 63.4375 C 51.851562 63.4375 63.4375 51.851562 63.4375 37.5625 C 63.4375 23.273438 51.851562 11.6875 37.5625 11.6875 C 23.273438 11.6875 11.6875 23.273438 11.6875 37.5625 C 11.6875 51.851562 23.273438 63.4375 37.5625 63.4375 Z M 25.511719 26.261719 C 28.851562 23.136719 33.496094 20.742188 37.785156 19.214844 C 45 16.652344 52.621094 18.164062 53.789062 22.761719 L 53.632812 22.617188 C 54.765625 27.148438 50.851562 32.550781 45.839844 34.488281 C 41.375 36.234375 37.652344 35.945312 36.136719 35.457031 C 34.386719 34.875 33.382812 33.746094 33.125 33.097656 C 33.027344 32.839844 32.867188 32.417969 33.125 32.289062 C 33.289062 32.191406 33.351562 32.222656 33.804688 32.707031 C 34.226562 33.164062 35.875 34.390625 39.042969 34.035156 C 47.355469 33.097656 52.335938 26.660156 50.753906 23.199219 C 49.65625 20.773438 43.28125 19.671875 35.292969 23.652344 C 25.558594 28.503906 25.007812 32.511719 24.941406 34.035156 C 24.714844 38.207031 30.117188 40.40625 33.027344 43.542969 C 33.125 43.605469 33.191406 43.671875 33.253906 43.769531 C 34.125 43.414062 35.359375 43.25 37.296875 43.21875 C 42.019531 43.15625 44.671875 46.257812 44.574219 49.039062 C 44.476562 51.242188 42.472656 52.144531 42.113281 52.210938 C 41.859375 52.242188 41.695312 52.242188 41.664062 52.050781 C 41.632812 51.917969 41.730469 51.855469 42.050781 51.660156 C 42.378906 51.464844 43.3125 50.785156 43.507812 49.625 C 43.703125 48.457031 42.796875 45.613281 38.265625 45.09375 C 36.648438 44.898438 35.390625 45.027344 34.320312 45.320312 C 35.101562 47.035156 35.261719 50.527344 33.449219 53.246094 C 31.574219 56.023438 28.082031 57.742188 24.683594 56.800781 C 23.585938 56.511719 21.902344 54.246094 23.359375 51.078125 C 24.714844 48.066406 30.515625 45.15625 31.304688 44.769531 L 31.304688 44.757812 C 28.621094 42.441406 22.085938 39.324219 21.164062 34.558594 C 20.902344 33.207031 21.535156 29.972656 25.511719 26.261719 Z M 25.511719 26.261719 " fill-opacity="1" fill-rule="nonzero"/></g><path fill="#c76495" d="M 26.355469 54.296875 C 27.257812 54.816406 29.355469 54.195312 30.863281 52.558594 C 31.355469 52.019531 31.757812 51.4375 32.058594 50.8125 C 32.113281 50.691406 32.175781 50.566406 32.226562 50.433594 L 32.367188 50.046875 C 32.753906 48.871094 32.796875 47.574219 32.417969 46.183594 L 32.1875 46.3125 L 32.1875 46.320312 C 32.1875 46.320312 29.492188 47.59375 27.613281 49.574219 C 25.867188 51.417969 25.386719 53.730469 26.355469 54.296875 Z M 26.355469 54.296875 " fill-opacity="1" fill-rule="nonzero"/></svg>