<svg xmlns="http://www.w3.org/2000/svg" xmlns:xlink="http://www.w3.org/1999/xlink" width="100" zoomAndPan="magnify" viewBox="0 0 75 74.999997" height="100" preserveAspectRatio="xMidYMid meet" version="1.0"><defs><clipPath id="d8af5e1201"><path d="M 13.621094 11.476562 L 61.621094 11.476562 L 61.621094 63.226562 L 13.621094 63.226562 Z M 13.621094 11.476562 " clip-rule="nonzero"/></clipPath></defs><g clip-path="url(#d8af5e1201)"><path fill="#2196f3" d="M 61.316406 11.828125 C 61.101562 11.59375 60.832031 11.476562 60.507812 11.476562 L 14.734375 11.476562 C 14.582031 11.476562 14.433594 11.503906 14.292969 11.566406 C 14.152344 11.628906 14.027344 11.714844 13.925781 11.828125 C 13.820312 11.941406 13.746094 12.070312 13.695312 12.214844 C 13.648438 12.359375 13.632812 12.507812 13.648438 12.660156 L 18.003906 55.785156 C 18.027344 55.996094 18.105469 56.1875 18.238281 56.351562 C 18.371094 56.519531 18.539062 56.636719 18.746094 56.703125 L 38.363281 63.171875 C 38.476562 63.207031 38.59375 63.226562 38.710938 63.226562 C 38.84375 63.226562 38.972656 63.203125 39.097656 63.15625 L 56.53125 56.6875 C 56.957031 56.53125 57.191406 56.230469 57.238281 55.785156 L 61.597656 12.660156 C 61.628906 12.34375 61.535156 12.066406 61.316406 11.828125 Z M 61.316406 11.828125 " fill-opacity="1" fill-rule="nonzero"/></g><path fill="#fafafa" d="M 38.710938 52.445312 C 38.59375 52.445312 38.480469 52.425781 38.367188 52.390625 L 28.558594 49.15625 C 28.160156 49.023438 27.917969 48.753906 27.835938 48.347656 L 26.746094 42.957031 C 26.71875 42.816406 26.714844 42.675781 26.742188 42.535156 C 26.769531 42.394531 26.824219 42.265625 26.90625 42.144531 C 26.984375 42.027344 27.085938 41.925781 27.203125 41.847656 C 27.324219 41.765625 27.453125 41.710938 27.597656 41.683594 C 27.738281 41.65625 27.878906 41.65625 28.019531 41.683594 C 28.164062 41.710938 28.292969 41.761719 28.414062 41.839844 C 28.535156 41.921875 28.636719 42.019531 28.71875 42.136719 C 28.796875 42.257812 28.851562 42.386719 28.882812 42.527344 L 29.847656 47.300781 L 38.691406 50.222656 L 46.464844 47.339844 L 50.496094 24.414062 L 25.632812 24.414062 C 25.488281 24.414062 25.351562 24.386719 25.21875 24.332031 C 25.082031 24.277344 24.964844 24.199219 24.863281 24.097656 C 24.761719 23.996094 24.683594 23.878906 24.628906 23.746094 C 24.574219 23.617188 24.542969 23.476562 24.542969 23.335938 C 24.542969 23.191406 24.574219 23.054688 24.628906 22.921875 C 24.683594 22.789062 24.761719 22.671875 24.863281 22.574219 C 24.964844 22.472656 25.082031 22.394531 25.21875 22.339844 C 25.351562 22.285156 25.488281 22.257812 25.632812 22.257812 L 51.789062 22.257812 C 51.949219 22.257812 52.105469 22.289062 52.25 22.355469 C 52.398438 22.425781 52.519531 22.519531 52.625 22.640625 C 52.730469 22.761719 52.800781 22.902344 52.84375 23.054688 C 52.886719 23.207031 52.890625 23.363281 52.863281 23.519531 L 48.503906 48.316406 C 48.433594 48.722656 48.203125 48.996094 47.8125 49.140625 L 39.097656 52.375 C 38.972656 52.421875 38.84375 52.445312 38.710938 52.445312 Z M 38.710938 52.445312 " fill-opacity="1" fill-rule="nonzero"/><path fill="#fafafa" d="M 49.609375 35.195312 L 26.722656 35.195312 C 26.578125 35.195312 26.441406 35.167969 26.308594 35.113281 C 26.171875 35.058594 26.054688 34.980469 25.953125 34.878906 C 25.851562 34.777344 25.773438 34.660156 25.71875 34.527344 C 25.664062 34.398438 25.632812 34.257812 25.632812 34.117188 C 25.632812 33.972656 25.664062 33.835938 25.71875 33.703125 C 25.773438 33.570312 25.851562 33.453125 25.953125 33.355469 C 26.054688 33.253906 26.171875 33.175781 26.308594 33.121094 C 26.441406 33.066406 26.578125 33.039062 26.722656 33.039062 L 49.609375 33.039062 C 49.753906 33.039062 49.894531 33.066406 50.027344 33.121094 C 50.160156 33.175781 50.277344 33.253906 50.382812 33.355469 C 50.484375 33.453125 50.5625 33.570312 50.617188 33.703125 C 50.671875 33.835938 50.699219 33.972656 50.699219 34.117188 C 50.699219 34.257812 50.671875 34.398438 50.617188 34.527344 C 50.5625 34.660156 50.484375 34.777344 50.382812 34.878906 C 50.277344 34.980469 50.160156 35.058594 50.027344 35.113281 C 49.894531 35.167969 49.753906 35.195312 49.609375 35.195312 Z M 49.609375 35.195312 " fill-opacity="1" fill-rule="nonzero"/></svg>