<svg xmlns="http://www.w3.org/2000/svg" xmlns:xlink="http://www.w3.org/1999/xlink" width="100" zoomAndPan="magnify" viewBox="0 0 75 74.999997" height="100" preserveAspectRatio="xMidYMid meet" version="1.0"><defs><clipPath id="f1ca997ec4"><path d="M 12 13 L 63.261719 13 L 63.261719 63.261719 L 12 63.261719 Z M 12 13 " clip-rule="nonzero"/></clipPath></defs><g clip-path="url(#f1ca997ec4)"><path fill="#00678c" d="M 59.246094 51.898438 C 56.476562 51.820312 54.324219 52.105469 52.523438 52.863281 C 52.003906 53.070312 51.171875 53.070312 51.105469 53.726562 C 51.382812 54 51.414062 54.449219 51.65625 54.828125 C 52.074219 55.515625 52.800781 56.445312 53.460938 56.925781 L 55.675781 58.511719 C 57.027344 59.335938 58.554688 59.820312 59.871094 60.648438 C 60.632812 61.128906 61.394531 61.75 62.15625 62.265625 C 62.546875 62.542969 62.78125 62.988281 63.265625 63.160156 L 63.265625 63.058594 C 63.023438 62.75 62.953125 62.300781 62.710938 61.957031 L 61.671875 60.957031 C 60.667969 59.613281 59.417969 58.441406 58.066406 57.480469 C 56.957031 56.722656 54.535156 55.6875 54.082031 54.414062 L 54.015625 54.335938 C 54.777344 54.261719 55.675781 53.992188 56.40625 53.785156 C 57.585938 53.476562 58.65625 53.542969 59.871094 53.234375 L 61.535156 52.753906 L 61.535156 52.445312 C 60.910156 51.824219 60.460938 50.996094 59.800781 50.414062 C 58.035156 48.898438 56.09375 47.414062 54.082031 46.175781 C 53.007812 45.488281 51.621094 45.039062 50.480469 44.453125 C 50.0625 44.246094 49.371094 44.144531 49.128906 43.800781 C 48.503906 43.042969 48.15625 42.042969 47.707031 41.148438 L 44.863281 35.15625 C 44.242188 33.8125 43.859375 32.46875 43.097656 31.230469 C 39.527344 25.375 35.644531 21.828125 29.6875 18.347656 C 28.40625 17.625 26.878906 17.316406 25.257812 16.9375 L 22.660156 16.796875 C 22.105469 16.558594 21.550781 15.902344 21.066406 15.59375 C 19.089844 14.351562 13.996094 11.667969 12.539062 15.207031 C 11.601562 17.445312 13.925781 19.648438 14.714844 20.785156 C 15.304688 21.578125 16.066406 22.472656 16.484375 23.367188 C 16.714844 23.953125 16.792969 24.574219 17.035156 25.195312 C 17.589844 26.710938 18.109375 28.398438 18.839844 29.808594 C 19.226562 30.53125 19.632812 31.292969 20.121094 31.945312 C 20.398438 32.332031 20.882812 32.496094 20.984375 33.117188 C 20.5 33.804688 20.46875 34.835938 20.191406 35.699219 C 18.941406 39.59375 19.425781 44.414062 21.195312 47.277344 C 21.75 48.140625 23.058594 50.035156 24.832031 49.308594 C 26.394531 48.691406 26.046875 46.726562 26.496094 45.003906 C 26.601562 44.59375 26.53125 44.316406 26.738281 44.039062 L 26.738281 44.117188 L 28.160156 46.976562 C 29.234375 48.664062 31.105469 50.421875 32.664062 51.589844 C 33.496094 52.210938 34.15625 53.28125 35.195312 53.65625 L 35.195312 53.554688 L 35.125 53.554688 C 34.917969 53.246094 34.605469 53.105469 34.328125 52.867188 C 33.703125 52.246094 33.011719 51.488281 32.527344 50.800781 C 31.070312 48.871094 29.789062 46.734375 28.644531 44.53125 C 28.089844 43.464844 27.605469 42.292969 27.15625 41.226562 C 26.945312 40.8125 26.945312 40.191406 26.601562 39.984375 C 26.078125 40.742188 25.320312 41.398438 24.9375 42.328125 C 24.277344 43.808594 24.207031 45.632812 23.964844 47.527344 C 23.828125 47.5625 23.886719 47.527344 23.828125 47.605469 C 22.71875 47.328125 22.335938 46.191406 21.921875 45.230469 C 20.882812 42.785156 20.707031 38.859375 21.609375 36.035156 C 21.851562 35.308594 22.890625 33.035156 22.476562 32.347656 C 22.265625 31.695312 21.574219 31.316406 21.195312 30.796875 C 20.742188 30.144531 20.257812 29.316406 19.945312 28.59375 C 19.117188 26.664062 18.699219 24.53125 17.796875 22.601562 C 17.382812 21.707031 16.65625 20.777344 16.066406 19.949219 C 15.40625 19.019531 14.679688 18.367188 14.160156 17.265625 C 13.988281 16.878906 13.742188 16.265625 14.019531 15.851562 C 14.089844 15.574219 14.230469 15.464844 14.503906 15.402344 C 14.957031 15.019531 16.238281 15.507812 16.6875 15.710938 C 17.972656 16.230469 19.046875 16.710938 20.121094 17.433594 C 20.605469 17.777344 21.125 18.433594 21.75 18.605469 L 22.476562 18.605469 C 23.585938 18.847656 24.832031 18.683594 25.871094 18.992188 C 27.707031 19.578125 29.371094 20.4375 30.863281 21.367188 C 35.402344 24.226562 39.144531 28.292969 41.675781 33.148438 C 42.089844 33.941406 42.261719 34.664062 42.644531 35.488281 C 43.375 37.179688 44.273438 38.898438 45 40.554688 C 45.730469 42.171875 46.421875 43.828125 47.460938 45.167969 C 47.980469 45.894531 50.0625 46.269531 50.996094 46.648438 C 51.6875 46.957031 52.761719 47.238281 53.386719 47.613281 C 54.566406 48.339844 55.742188 49.164062 56.851562 49.957031 C 57.40625 50.367188 59.140625 51.230469 59.242188 51.917969 Z M 23.90625 21.972656 C 23.425781 21.96875 22.953125 22.023438 22.488281 22.144531 L 22.488281 22.21875 L 22.554688 22.21875 C 22.832031 22.773438 23.316406 23.152344 23.664062 23.632812 L 24.460938 25.285156 L 24.53125 25.210938 C 25.015625 24.863281 25.257812 24.3125 25.257812 23.488281 C 25.050781 23.246094 25.015625 23.003906 24.84375 22.765625 C 24.636719 22.421875 24.183594 22.246094 23.90625 21.972656 Z M 23.90625 21.972656 " fill-opacity="1" fill-rule="evenodd"/></g></svg>