<svg xmlns="http://www.w3.org/2000/svg" xmlns:xlink="http://www.w3.org/1999/xlink" width="100" zoomAndPan="magnify" viewBox="0 0 75 74.999997" height="100" preserveAspectRatio="xMidYMid meet" version="1.0"><defs><clipPath id="28630f0d73"><path d="M 11.488281 11.488281 L 63.238281 11.488281 L 63.238281 63.238281 L 11.488281 63.238281 Z M 11.488281 11.488281 " clip-rule="nonzero"/></clipPath></defs><g clip-path="url(#28630f0d73)"><path fill="#563d7c" d="M 11.488281 56.566406 C 11.488281 60.25 14.476562 63.238281 18.160156 63.238281 L 56.566406 63.238281 C 60.25 63.238281 63.238281 60.25 63.238281 56.566406 L 63.238281 18.160156 C 63.238281 14.476562 60.25 11.488281 56.566406 11.488281 L 18.160156 11.488281 C 14.472656 11.488281 11.488281 14.476562 11.488281 18.160156 Z M 11.488281 56.566406 " fill-opacity="1" fill-rule="nonzero"/></g><path fill="#ffffff" d="M 32.949219 34.378906 L 32.949219 27.050781 L 39.398438 27.050781 C 40.011719 27.050781 40.605469 27.101562 41.175781 27.203125 C 41.746094 27.304688 42.25 27.488281 42.6875 27.753906 C 43.128906 28.015625 43.480469 28.382812 43.742188 28.847656 C 44.003906 29.316406 44.136719 29.917969 44.136719 30.648438 C 44.136719 31.964844 43.742188 32.914062 42.953125 33.5 C 42.164062 34.085938 41.152344 34.378906 39.921875 34.378906 Z M 26.058594 21.695312 L 26.058594 53.027344 L 41.242188 53.027344 C 42.644531 53.027344 44.011719 52.851562 45.34375 52.5 C 46.675781 52.152344 47.859375 51.609375 48.898438 50.878906 C 49.9375 50.144531 50.761719 49.203125 51.378906 48.046875 C 51.992188 46.890625 52.300781 45.523438 52.300781 43.945312 C 52.300781 41.984375 51.824219 40.308594 50.875 38.921875 C 49.921875 37.53125 48.484375 36.558594 46.550781 36.003906 C 47.957031 35.328125 49.015625 34.464844 49.730469 33.414062 C 50.449219 32.359375 50.808594 31.042969 50.808594 29.464844 C 50.808594 28 50.566406 26.773438 50.082031 25.777344 C 49.601562 24.78125 48.921875 23.984375 48.042969 23.386719 C 47.164062 22.785156 46.113281 22.355469 44.882812 22.089844 C 43.65625 21.828125 42.296875 21.695312 40.804688 21.695312 Z M 32.949219 47.675781 L 32.949219 39.074219 L 40.453125 39.074219 C 41.941406 39.074219 43.140625 39.417969 44.050781 40.105469 C 44.957031 40.792969 45.410156 41.941406 45.410156 43.550781 C 45.410156 44.367188 45.269531 45.042969 44.992188 45.570312 C 44.714844 46.09375 44.34375 46.511719 43.875 46.820312 C 43.40625 47.125 42.863281 47.347656 42.25 47.476562 C 41.636719 47.609375 40.992188 47.675781 40.320312 47.675781 Z M 32.949219 47.675781 " fill-opacity="1" fill-rule="nonzero"/></svg>